Raleway-Regular-Italic.ufo
<glyph name="ampersand" format="1">
  <advance width="671"/>
  <unicode hex="0026"/>
  <outline>
    <contour>
      <point x="185" y="-10" type="curve" smooth="yes"/>
      <point x="348" y="-10"/>
      <point x="510" y="170"/>
      <point x="556" y="416" type="curve"/>
      <point x="494" y="416" type="line"/>
      <point x="457" y="207"/>
      <point x="328" y="46"/>
      <point x="199" y="46" type="curve" smooth="yes"/>
      <point x="134" y="46"/>
      <point x="85" y="90"/>
      <point x="85" y="163" type="curve" smooth="yes"/>
      <point x="85" y="249"/>
      <point x="157" y="311"/>
      <point x="270" y="376" type="curve"/>
      <point x="237" y="418" type="line"/>
      <point x="114" y="347"/>
      <point x="18" y="273"/>
      <point x="18" y="155" type="curve" smooth="yes"/>
      <point x="18" y="59"/>
      <point x="87" y="-10"/>
    </contour>
    <contour>
      <point x="480" y="0" type="line"/>
      <point x="566" y="0" type="line"/>
      <point x="276" y="415" type="line" smooth="yes"/>
      <point x="229" y="482"/>
      <point x="215" y="520"/>
      <point x="215" y="550" type="curve" smooth="yes"/>
      <point x="215" y="611"/>
      <point x="277" y="666"/>
      <point x="347" y="666" type="curve" smooth="yes"/>
      <point x="402" y="666"/>
      <point x="449" y="627"/>
      <point x="470" y="572" type="curve"/>
      <point x="517" y="614" type="line"/>
      <point x="489" y="679"/>
      <point x="430" y="719"/>
      <point x="358" y="719" type="curve" smooth="yes"/>
      <point x="248" y="719"/>
      <point x="151" y="638"/>
      <point x="151" y="540" type="curve" smooth="yes"/>
      <point x="151" y="495"/>
      <point x="173" y="448"/>
      <point x="229" y="367" type="curve" smooth="yes"/>
    </contour>
    <contour>
      <point x="493" y="361" type="line"/>
      <point x="642" y="361" type="line"/>
      <point x="654" y="416" type="line"/>
      <point x="504" y="416" type="line"/>
    </contour>
  </outline>
</glyph>
<glyph name="hyphen" format="1">
  <advance width="405"/>
  <unicode hex="002D"/>
  <outline>
    <contour>
      <point x="329" y="241" type="line"/>
      <point x="342" y="304" type="line"/>
      <point x="64" y="304" type="line"/>
      <point x="51" y="241" type="line"/>
    </contour>
  </outline>
</glyph>
<glyph name="F" format="1">
  <advance width="572"/>
  <unicode hex="0046"/>
  <outline>
    <contour>
      <point x="24" y="0" type="line"/>
      <point x="93" y="0" type="line"/>
      <point x="163" y="329" type="line"/>
      <point x="478" y="329" type="line"/>
      <point x="491" y="387" type="line"/>
      <point x="176" y="387" type="line"/>
      <point x="231" y="648" type="line"/>
      <point x="604" y="648" type="line"/>
      <point x="617" y="710" type="line"/>
      <point x="175" y="710" type="line"/>
    </contour>
  </outline>
</glyph>
<glyph name="Q" format="1">
  <advance width="721"/>
  <unicode hex="0051"/>
  <outline>
    <contour>
      <point x="296" y="-5" type="curve" smooth="yes"/>
      <point x="503" y="-5"/>
      <point x="698" y="205"/>
      <point x="698" y="420" type="curve" smooth="yes"/>
      <point x="698" y="571"/>
      <point x="611" y="715"/>
      <point x="451" y="715" type="curve" smooth="yes"/>
      <point x="243" y="715"/>
      <point x="46" y="505"/>
      <point x="46" y="288" type="curve" smooth="yes"/>
      <point x="46" y="135"/>
      <point x="136" y="-5"/>
    </contour>
    <contour>
      <point x="310" y="58" type="curve" smooth="yes"/>
      <point x="186" y="58"/>
      <point x="117" y="168"/>
      <point x="117" y="294" type="curve" smooth="yes"/>
      <point x="117" y="464"/>
      <point x="261" y="652"/>
      <point x="436" y="652" type="curve" smooth="yes"/>
      <point x="557" y="652"/>
      <point x="628" y="541"/>
      <point x="628" y="415" type="curve" smooth="yes"/>
      <point x="628" y="247"/>
      <point x="485" y="58"/>
    </contour>
    <contour>
      <point x="531" y="0" type="line"/>
      <point x="601" y="0" type="line"/>
      <point x="469" y="218" type="line"/>
      <point x="400" y="218" type="line"/>
    </contour>
  </outline>
</glyph>
<glyph name="X" format="1">
  <advance width="604"/>
  <unicode hex="0058"/>
  <outline>
    <contour>
      <point x="-51" y="0" type="line"/>
      <point x="28" y="0" type="line"/>
      <point x="302" y="300" type="line"/>
      <point x="449" y="0" type="line"/>
      <point x="526" y="0" type="line"/>
      <point x="350" y="350" type="line"/>
      <point x="685" y="710" type="line"/>
      <point x="608" y="710" type="line"/>
      <point x="324" y="400" type="line"/>
      <point x="171" y="710" type="line"/>
      <point x="92" y="710" type="line"/>
      <point x="274" y="350" type="line"/>
    </contour>
  </outline>
</glyph>
<glyph name="Y" format="1">
  <advance width="607"/>
  <unicode hex="0059"/>
  <outline>
    <contour>
      <point x="385" y="708" type="move" name="top"/>
    </contour>
    <contour>
      <point x="200" y="0" type="line"/>
      <point x="269" y="0" type="line"/>
      <point x="325" y="264" type="line"/>
      <point x="681" y="710" type="line"/>
      <point x="605" y="710" type="line"/>
      <point x="305" y="328" type="line"/>
      <point x="168" y="710" type="line"/>
      <point x="91" y="710" type="line"/>
      <point x="257" y="266" type="line"/>
    </contour>
  </outline>
</glyph>
<glyph name="grave" format="1">
  <advance width="213"/>
  <unicode hex="0060"/>
  <outline>
    <contour>
      <point x="131" y="521" type="move" name="_top"/>
    </contour>
    <contour>
      <point x="126" y="620" type="line"/>
      <point x="175" y="637" type="line"/>
      <point x="137" y="730" type="line"/>
      <point x="67" y="730" type="line"/>
    </contour>
  </outline>
</glyph>
<glyph name="braceright" format="1">
  <advance width="250"/>
  <unicode hex="007D"/>
  <outline>
    <contour>
      <point x="181" y="683" type="line"/>
      <point x="125" y="422" type="line" smooth="yes"/>
      <point x="124" y="417"/>
      <point x="123" y="411"/>
      <point x="123" y="404" type="curve" smooth="yes"/>
      <point x="123" y="389"/>
      <point x="127" y="373"/>
      <point x="137" y="360" type="curve"/>
      <point x="114" y="342"/>
      <point x="102" y="313"/>
      <point x="99" y="298" type="curve" smooth="yes"/>
      <point x="41" y="26" type="line"/>
      <point x="-12" y="26" type="line"/>
      <point x="-24" y="-31" type="line"/>
      <point x="69" y="-31" type="line" smooth="yes"/>
      <point x="78" y="-31"/>
      <point x="93" y="-24"/>
      <point x="98" y="-1" type="curve" smooth="yes"/>
      <point x="157" y="280" type="line" smooth="yes"/>
      <point x="162" y="306"/>
      <point x="181" y="332"/>
      <point x="206" y="335" type="curve"/>
      <point x="217" y="387" type="line"/>
      <point x="196" y="387"/>
      <point x="189" y="409"/>
      <point x="189" y="427" type="curve" smooth="yes"/>
      <point x="189" y="431"/>
      <point x="190" y="436"/>
      <point x="191" y="440" type="curve" smooth="yes"/>
      <point x="249" y="710" type="line" smooth="yes"/>
      <point x="250" y="713"/>
      <point x="250" y="716"/>
      <point x="250" y="719" type="curve" smooth="yes"/>
      <point x="250" y="736"/>
      <point x="238" y="740"/>
      <point x="233" y="740" type="curve" smooth="yes"/>
      <point x="140" y="740" type="line"/>
      <point x="129" y="683" type="line"/>
    </contour>
  </outline>
</glyph>
<glyph name="asciitilde" format="1">
  <advance width="492"/>
  <unicode hex="007E"/>
  <outline>
    <contour>
      <point x="51" y="241" type="curve"/>
      <point x="94" y="241" type="line"/>
      <point x="94" y="243"/>
      <point x="118" y="299"/>
      <point x="164" y="299" type="curve" smooth="yes"/>
      <point x="211" y="299"/>
      <point x="246" y="241"/>
      <point x="310" y="241" type="curve" smooth="yes"/>
      <point x="394" y="241"/>
      <point x="435" y="332"/>
      <point x="436" y="338" type="curve"/>
      <point x="394" y="338" type="line"/>
      <point x="394" y="333"/>
      <point x="369" y="286"/>
      <point x="319" y="286" type="curve" smooth="yes"/>
      <point x="266" y="286"/>
      <point x="232" y="344"/>
      <point x="172" y="344" type="curve" smooth="yes"/>
      <point x="96" y="344"/>
      <point x="54" y="254"/>
    </contour>
  </outline>
</glyph>
<glyph name="currency" format="1">
  <advance width="562"/>
  <unicode hex="00A4"/>
  <outline>
    <contour>
      <point x="105" y="551" type="line"/>
      <point x="72" y="518" type="line"/>
      <point x="142" y="447" type="line"/>
      <point x="119" y="416"/>
      <point x="107" y="378"/>
      <point x="107" y="336" type="curve" smooth="yes"/>
      <point x="107" y="295"/>
      <point x="120" y="257"/>
      <point x="143" y="225" type="curve"/>
      <point x="72" y="154" type="line"/>
      <point x="101" y="125" type="line"/>
      <point x="173" y="194" type="line"/>
      <point x="204" y="170"/>
      <point x="242" y="155"/>
      <point x="287" y="155" type="curve" smooth="yes"/>
      <point x="332" y="155"/>
      <point x="371" y="170"/>
      <point x="400" y="194" type="curve"/>
      <point x="474" y="125" type="line"/>
      <point x="504" y="154" type="line"/>
      <point x="431" y="226" type="line"/>
      <point x="454" y="257"/>
      <point x="467" y="296"/>
      <point x="467" y="336" type="curve" smooth="yes"/>
      <point x="467" y="377"/>
      <point x="454" y="416"/>
      <point x="432" y="446" type="curve"/>
      <point x="504" y="518" type="line"/>
      <point x="470" y="551" type="line"/>
      <point x="400" y="480" type="line"/>
      <point x="369" y="504"/>
      <point x="331" y="519"/>
      <point x="287" y="519" type="curve" smooth="yes"/>
      <point x="243" y="519"/>
      <point x="204" y="505"/>
      <point x="175" y="480" type="curve"/>
    </contour>
    <contour>
      <point x="164" y="335" type="curve" smooth="yes"/>
      <point x="164" y="411"/>
      <point x="219" y="470"/>
      <point x="287" y="470" type="curve" smooth="yes"/>
      <point x="355" y="470"/>
      <point x="410" y="412"/>
      <point x="410" y="337" type="curve" smooth="yes"/>
      <point x="410" y="263"/>
      <point x="355" y="203"/>
      <point x="287" y="203" type="curve" smooth="yes"/>
      <point x="219" y="203"/>
      <point x="164" y="262"/>
    </contour>
  </outline>
</glyph>
<glyph name="ordfeminine" format="1">
  <advance width="414"/>
  <unicode hex="00AA"/>
  <outline>
    <contour>
      <point x="193" y="519" type="move" name="top"/>
    </contour>
    <contour>
      <point x="386" y="11" type="move" name="bottom"/>
    </contour>
    <contour>
      <point x="167" y="346" type="curve" smooth="yes"/>
      <point x="220" y="346"/>
      <point x="273" y="369"/>
      <point x="313" y="411" type="curve"/>
      <point x="311" y="398"/>
      <point x="309" y="386"/>
      <point x="309" y="381" type="curve" smooth="yes"/>
      <point x="309" y="358"/>
      <point x="330" y="351"/>
      <point x="357" y="351" type="curve" smooth="yes"/>
      <point x="361" y="351"/>
      <point x="365" y="351"/>
      <point x="369" y="352" type="curve"/>
      <point x="380" y="404" type="line"/>
      <point x="370" y="405"/>
      <point x="365" y="409"/>
      <point x="365" y="418" type="curve" smooth="yes"/>
      <point x="365" y="421"/>
      <point x="365" y="423"/>
      <point x="366" y="426" type="curve" smooth="yes"/>
      <point x="397" y="569" type="line" smooth="yes"/>
      <point x="400" y="583"/>
      <point x="401" y="596"/>
      <point x="401" y="609" type="curve" smooth="yes"/>
      <point x="401" y="674"/>
      <point x="358" y="710"/>
      <point x="283" y="710" type="curve" smooth="yes"/>
      <point x="239" y="710"/>
      <point x="193" y="695"/>
      <point x="142" y="664" type="curve"/>
      <point x="153" y="627" type="line"/>
      <point x="197" y="654"/>
      <point x="236" y="668"/>
      <point x="270" y="668" type="curve" smooth="yes"/>
      <point x="317" y="668"/>
      <point x="343" y="642"/>
      <point x="343" y="600" type="curve" smooth="yes"/>
      <point x="343" y="593"/>
      <point x="342" y="585"/>
      <point x="340" y="575" type="curve" smooth="yes"/>
      <point x="334" y="547" type="line"/>
      <point x="310" y="559"/>
      <point x="277" y="565"/>
      <point x="242" y="565" type="curve" smooth="yes"/>
      <point x="149" y="565"/>
      <point x="75" y="512"/>
      <point x="75" y="436" type="curve" smooth="yes"/>
      <point x="75" y="385"/>
      <point x="112" y="346"/>
    </contour>
    <contour>
      <point x="192" y="391" type="curve" smooth="yes"/>
      <point x="156" y="391"/>
      <point x="132" y="416"/>
      <point x="132" y="449" type="curve" smooth="yes"/>
      <point x="132" y="496"/>
      <point x="180" y="528"/>
      <point x="244" y="528" type="curve" smooth="yes"/>
      <point x="273" y="528"/>
      <point x="303" y="524"/>
      <point x="326" y="512" type="curve"/>
      <point x="315" y="460" type="line" smooth="yes"/>
      <point x="307" y="423"/>
      <point x="243" y="391"/>
    </contour>
  </outline>
</glyph>
<glyph name="divide" format="1">
  <advance width="537"/>
  <unicode hex="00F7"/>
  <outline>
    <contour>
      <point x="293" y="399" type="line"/>
      <point x="293" y="490" type="line"/>
      <point x="234" y="490" type="line"/>
      <point x="234" y="399" type="line"/>
    </contour>
    <contour>
      <point x="293" y="74" type="line"/>
      <point x="293" y="164" type="line"/>
      <point x="234" y="164" type="line"/>
      <point x="234" y="74" type="line"/>
    </contour>
    <contour>
      <point x="465" y="254" type="line"/>
      <point x="465" y="311" type="line"/>
      <point x="62" y="311" type="line"/>
      <point x="62" y="254" type="line"/>
    </contour>
  </outline>
</glyph>
<glyph name="oslash" format="1">
  <advance width="573"/>
  <unicode hex="00F8"/>
  <outline>
    <contour>
      <point x="221" y="-10" type="curve" smooth="yes"/>
      <point x="386" y="-10"/>
      <point x="531" y="145"/>
      <point x="531" y="311" type="curve" smooth="yes"/>
      <point x="531" y="431"/>
      <point x="457" y="530"/>
      <point x="335" y="530" type="curve" smooth="yes"/>
      <point x="172" y="530"/>
      <point x="24" y="375"/>
      <point x="24" y="208" type="curve" smooth="yes"/>
      <point x="24" y="89"/>
      <point x="97" y="-10"/>
    </contour>
    <contour>
      <point x="233" y="50" type="curve" smooth="yes"/>
      <point x="150" y="50"/>
      <point x="94" y="122"/>
      <point x="94" y="216" type="curve" smooth="yes"/>
      <point x="94" y="351"/>
      <point x="211" y="470"/>
      <point x="322" y="470" type="curve" smooth="yes"/>
      <point x="405" y="470"/>
      <point x="461" y="396"/>
      <point x="461" y="302" type="curve" smooth="yes"/>
      <point x="461" y="167"/>
      <point x="345" y="50"/>
    </contour>
    <contour>
      <point x="25" y="-1" type="line"/>
      <point x="71" y="-1" type="line"/>
      <point x="126" y="56" type="line"/>
      <point x="105" y="81" type="line"/>
    </contour>
    <contour>
      <point x="130" y="61" type="line"/>
      <point x="451" y="442" type="line"/>
      <point x="427" y="462" type="line"/>
      <point x="110" y="84" type="line"/>
    </contour>
    <contour>
      <point x="457" y="446" type="line"/>
      <point x="530" y="523" type="line"/>
      <point x="484" y="523" type="line"/>
      <point x="431" y="466" type="line"/>
    </contour>
  </outline>
</glyph>
<glyph name="ring" format="1">
  <advance width="236"/>
  <unicode hex="02DA"/>
  <outline>
    <contour>
      <point x="124" y="521" type="move" name="_top"/>
    </contour>
    <contour>
      <point x="66" y="652" type="curve" smooth="yes"/>
      <point x="66" y="620"/>
      <point x="88" y="599"/>
      <point x="124" y="599" type="curve" smooth="yes"/>
      <point x="173" y="599"/>
      <point x="211" y="632"/>
      <point x="211" y="677" type="curve" smooth="yes"/>
      <point x="211" y="709"/>
      <point x="189" y="730"/>
      <point x="153" y="730" type="curve" smooth="yes"/>
      <point x="106" y="730"/>
      <point x="66" y="698"/>
    </contour>
    <contour>
      <point x="147" y="703" type="curve" smooth="yes"/>
      <point x="165" y="703"/>
      <point x="179" y="691"/>
      <point x="179" y="672" type="curve" smooth="yes"/>
      <point x="179" y="645"/>
      <point x="152" y="626"/>
      <point x="130" y="626" type="curve" smooth="yes"/>
      <point x="111" y="626"/>
      <point x="99" y="640"/>
      <point x="99" y="657" type="curve" smooth="yes"/>
      <point x="99" y="684"/>
      <point x="123" y="703"/>
    </contour>
  </outline>
</glyph>
<glyph name="uni03BC" format="1">
  <advance width="576"/>
  <unicode hex="03BC"/>
  <outline>
    <contour>
      <point x="-36" y="-212" type="line"/>
      <point x="32" y="-212" type="line"/>
      <point x="89" y="75" type="line"/>
      <point x="95" y="25"/>
      <point x="126" y="-10"/>
      <point x="186" y="-10" type="curve" smooth="yes"/>
      <point x="264" y="-10"/>
      <point x="352" y="47"/>
      <point x="401" y="118" type="curve"/>
      <point x="392" y="82"/>
      <point x="387" y="47"/>
      <point x="387" y="40" type="curve" smooth="yes"/>
      <point x="387" y="9"/>
      <point x="418" y="0"/>
      <point x="458" y="0" type="curve"/>
      <point x="472" y="60" type="line"/>
      <point x="458" y="60"/>
      <point x="452" y="65"/>
      <point x="452" y="77" type="curve" smooth="yes"/>
      <point x="452" y="80"/>
      <point x="453" y="84"/>
      <point x="454" y="88" type="curve" smooth="yes"/>
      <point x="546" y="521" type="line"/>
      <point x="478" y="521" type="line"/>
      <point x="408" y="193" type="line"/>
      <point x="360" y="106"/>
      <point x="276" y="50"/>
      <point x="202" y="50" type="curve" smooth="yes"/>
      <point x="144" y="50"/>
      <point x="115" y="82"/>
      <point x="115" y="149" type="curve" smooth="yes"/>
      <point x="115" y="171"/>
      <point x="119" y="197"/>
      <point x="125" y="227" type="curve" smooth="yes"/>
      <point x="188" y="521" type="line"/>
      <point x="120" y="521" type="line"/>
    </contour>
  </outline>
</glyph>
<glyph name="W.sc" format="1">
  <advance width="857"/>
  <outline>
    <contour>
      <point x="440" y="707" type="move" name="top"/>
    </contour>
    <contour>
      <point x="189" y="0" type="line"/>
      <point x="245" y="0" type="line"/>
      <point x="418" y="264" type="line"/>
      <point x="479" y="0" type="line"/>
      <point x="533" y="0" type="line"/>
      <point x="890" y="548" type="line"/>
      <point x="822" y="548" type="line"/>
      <point x="518" y="76" type="line"/>
      <point x="465" y="307" type="line"/>
      <point x="615" y="544" type="line"/>
      <point x="555" y="544" type="line"/>
      <point x="435" y="352" type="line"/>
      <point x="398" y="544" type="line"/>
      <point x="339" y="544" type="line"/>
      <point x="388" y="307" type="line"/>
      <point x="238" y="76" type="line"/>
      <point x="134" y="548" type="line"/>
      <point x="66" y="548" type="line"/>
    </contour>
  </outline>
</glyph>
<glyph name="a.alt2" format="1">
  <advance width="519"/>
  <outline>
    <contour>
      <point x="130" y="-10" type="curve" smooth="yes"/>
      <point x="203" y="-10"/>
      <point x="282" y="19"/>
      <point x="340" y="82" type="curve"/>
      <point x="323" y="0" type="line"/>
      <point x="389" y="0" type="line"/>
      <point x="457" y="323" type="line" smooth="yes"/>
      <point x="461" y="342"/>
      <point x="463" y="362"/>
      <point x="463" y="380" type="curve" smooth="yes"/>
      <point x="463" y="471"/>
      <point x="409" y="530"/>
      <point x="300" y="530" type="curve" smooth="yes"/>
      <point x="232" y="530"/>
      <point x="162" y="501"/>
      <point x="99" y="462" type="curve"/>
      <point x="112" y="417" type="line"/>
      <point x="175" y="457"/>
      <point x="233" y="479"/>
      <point x="284" y="479" type="curve" smooth="yes"/>
      <point x="355" y="479"/>
      <point x="395" y="437"/>
      <point x="395" y="371" type="curve" smooth="yes"/>
      <point x="395" y="358"/>
      <point x="394" y="344"/>
      <point x="391" y="329" type="curve" smooth="yes"/>
      <point x="380" y="282" type="line"/>
      <point x="357" y="294"/>
      <point x="309" y="309"/>
      <point x="241" y="309" type="curve" smooth="yes"/>
      <point x="131" y="309"/>
      <point x="-4" y="254"/>
      <point x="-4" y="123" type="curve" smooth="yes"/>
      <point x="-4" y="48"/>
      <point x="49" y="-10"/>
    </contour>
    <contour>
      <point x="158" y="42" type="curve" smooth="yes"/>
      <point x="104" y="42"/>
      <point x="63" y="80"/>
      <point x="63" y="136" type="curve" smooth="yes"/>
      <point x="63" y="231"/>
      <point x="164" y="266"/>
      <point x="241" y="266" type="curve" smooth="yes"/>
      <point x="285" y="266"/>
      <point x="331" y="257"/>
      <point x="371" y="239" type="curve"/>
      <point x="353" y="154" type="line" smooth="yes"/>
      <point x="350" y="142"/>
      <point x="341" y="129"/>
      <point x="328" y="115" type="curve" smooth="yes"/>
      <point x="285" y="66"/>
      <point x="214" y="42"/>
    </contour>
  </outline>
</glyph>
<glyph name="four.lnum" format="1">
  <advance width="546"/>
  <outline>
    <contour>
      <point x="360" y="0" type="line"/>
      <point x="400" y="190" type="line"/>
      <point x="484" y="190" type="line"/>
      <point x="498" y="252" type="line"/>
      <point x="414" y="252" type="line"/>
      <point x="511" y="710" type="line"/>
      <point x="464" y="710" type="line"/>
      <point x="17" y="251" type="line"/>
      <point x="3" y="190" type="line"/>
      <point x="332" y="190" type="line"/>
      <point x="292" y="0" type="line"/>
    </contour>
    <contour>
      <point x="90" y="252" type="line"/>
      <point x="427" y="604" type="line"/>
      <point x="352" y="252" type="line"/>
    </contour>
  </outline>
</glyph>
<glyph name="seven.lnum" format="1">
  <advance width="499"/>
  <outline>
    <contour>
      <point x="12" y="0" type="line"/>
      <point x="88" y="0" type="line"/>
      <point x="581" y="710" type="line"/>
      <point x="112" y="710" type="line"/>
      <point x="99" y="647" type="line"/>
      <point x="459" y="647" type="line"/>
    </contour>
  </outline>
</glyph>
<glyph name="t.alt" format="1">
  <advance width="311"/>
  <outline>
    <contour>
      <point x="35" y="0" type="line"/>
      <point x="105" y="0" type="line"/>
      <point x="202" y="459" type="line"/>
      <point x="320" y="459" type="line"/>
      <point x="333" y="521" type="line"/>
      <point x="215" y="521" type="line"/>
      <point x="253" y="697" type="line"/>
      <point x="183" y="697" type="line"/>
      <point x="146" y="521" type="line"/>
      <point x="73" y="521" type="line"/>
      <point x="60" y="459" type="line"/>
      <point x="133" y="459" type="line"/>
    </contour>
  </outline>
</glyph>
